<svg viewBox="0 0 100 100" xmlns="http://www.w3.org/2000/svg"><path d="M 44.8 30.7 L 37.6 3.6 A 48 48 0 0 1 62.4 3.6 L 55.2 30.7 A 20 20 0 0 0 44.8 30.7" fill="#eab308" stroke="rgba(0,0,0,0.3)" stroke-width="0.5" /><path d="M 55.2 30.7 L 62.4 3.6 A 48 48 0 0 1 83.9 16.1 L 64.1 35.9 A 20 20 0 0 0 55.2 30.7" fill="#a3be3c" stroke="rgba(0,0,0,0.3)" stroke-width="0.5" /><path d="M 64.1 35.9 L 83.9 16.1 A 48 48 0 0 1 96.4 37.6 L 69.3 44.8 A 20 20 0 0 0 64.1 35.9" fill="#84cc16" stroke="rgba(0,0,0,0.3)" stroke-width="0.5" /><path d="M 69.3 44.8 L 96.4 37.6 A 48 48 0 0 1 96.4 62.4 L 69.3 55.2 A 20 20 0 0 0 69.3 44.8" fill="#4ade80" stroke="rgba(0,0,0,0.3)" stroke-width="0.5" /><path d="M 69.3 55.2 L 96.4 62.4 A 48 48 0 0 1 83.9 83.9 L 64.1 64.1 A 20 20 0 0 0 69.3 55.2" fill="#2dd4bf" stroke="rgba(0,0,0,0.3)" stroke-width="0.5" /><path d="M 64.1 64.1 L 83.9 83.9 A 48 48 0 0 1 62.4 96.4 L 55.2 69.3 A 20 20 0 0 0 64.1 64.1" fill="#3c3746" stroke="rgba(0,0,0,0.3)" stroke-width="0.5" /><path d="M 55.2 69.3 L 62.4 96.4 A 48 48 0 0 1 37.6 96.4 L 44.8 69.3 A 20 20 0 0 0 55.2 69.3" fill="#645078" stroke="rgba(0,0,0,0.3)" stroke-width="0.5" /><path d="M 44.8 69.3 L 37.6 96.4 A 48 48 0 0 1 16.1 83.9 L 35.9 64.1 A 20 20 0 0 0 44.8 69.3" fill="#50465a" stroke="rgba(0,0,0,0.3)" stroke-width="0.5" /><path d="M 35.9 64.1 L 16.1 83.9 A 48 48 0 0 1 3.6 62.4 L 30.7 55.2 A 20 20 0 0 0 35.9 64.1" fill="#3c3746" stroke="rgba(0,0,0,0.3)" stroke-width="0.5" /><path d="M 30.7 55.2 L 3.6 62.4 A 48 48 0 0 1 3.6 37.6 L 30.7 44.8 A 20 20 0 0 0 30.7 55.2" fill="#645078" stroke="rgba(0,0,0,0.3)" stroke-width="0.5" /><path d="M 30.7 44.8 L 3.6 37.6 A 48 48 0 0 1 16.1 16.1 L 35.9 35.9 A 20 20 0 0 0 30.7 44.8" fill="#a8a29e" stroke="rgba(0,0,0,0.3)" stroke-width="0.5" /><path d="M 35.9 35.9 L 16.1 16.1 A 48 48 0 0 1 37.6 3.6 L 44.8 30.7 A 20 20 0 0 0 35.9 35.9" fill="#fb923c" stroke="rgba(0,0,0,0.3)" stroke-width="0.5" /><circle cx="50" cy="50" r="18" fill="#ffffff" stroke="rgba(0,0,0,0.1)" stroke-width="1" /></svg>
